<?xml version="1.0" encoding="UTF-8"?>
<svg id="Layer_1" data-name="Layer 1" xmlns="http://www.w3.org/2000/svg" xmlns:xlink="http://www.w3.org/1999/xlink" viewBox="0 0 272.16 159.89">
  <defs>
    <style>
      .cls-1 {
        fill: #fec527;
        filter: url(#drop-shadow-3);
      }

      .cls-2 {
        fill: #f5763f;
      }

      .cls-3 {
        fill: #f58635;
        filter: url(#drop-shadow-1);
      }

      .cls-4 {
        fill: #f9a72f;
        filter: url(#drop-shadow-2);
      }
    </style>
    <filter id="drop-shadow-1" filterUnits="userSpaceOnUse">
      <feOffset dx="-1" dy="3"/>
      <feGaussianBlur result="blur" stdDeviation="5"/>
      <feFlood flood-color="#000" flood-opacity=".25"/>
      <feComposite in2="blur" operator="in"/>
      <feComposite in="SourceGraphic"/>
    </filter>
    <filter id="drop-shadow-2" filterUnits="userSpaceOnUse">
      <feOffset dx="-1" dy="3"/>
      <feGaussianBlur result="blur-2" stdDeviation="5"/>
      <feFlood flood-color="#000" flood-opacity=".25"/>
      <feComposite in2="blur-2" operator="in"/>
      <feComposite in="SourceGraphic"/>
    </filter>
    <filter id="drop-shadow-3" filterUnits="userSpaceOnUse">
      <feOffset dx="-1" dy="3"/>
      <feGaussianBlur result="blur-3" stdDeviation="5"/>
      <feFlood flood-color="#000" flood-opacity=".25"/>
      <feComposite in2="blur-3" operator="in"/>
      <feComposite in="SourceGraphic"/>
    </filter>
  </defs>
  <path class="cls-2" d="m149.58,102.4L18.09,123.63c-1.15.19-1.99,1.18-1.99,2.35l.1,14.97c0,1.16.85,2.14,1.99,2.32l105.11,16.59c.24.04.49.04.74,0l132.1-20.9c1.15-.18,1.99-1.17,1.99-2.33v-14.92c0-1.16-.84-2.15-1.99-2.33l-105.82-16.97c-.25-.04-.5-.04-.75,0Z"/>
  <path class="cls-3" d="m149.58,70.98L18.09,92.21c-1.15.19-1.99,1.18-1.99,2.35l.1,14.97c0,1.16.85,2.14,1.99,2.32l105.11,16.59c.24.04.49.04.74,0l132.1-20.9c1.15-.18,1.99-1.17,1.99-2.33v-14.92c0-1.16-.84-2.15-1.99-2.33l-105.82-16.97c-.25-.04-.5-.04-.75,0Z"/>
  <path class="cls-4" d="m149.58,40.9L18.09,62.14c-1.15.19-1.99,1.18-1.99,2.35l.1,14.97c0,1.16.85,2.14,1.99,2.32l105.11,16.59c.24.04.49.04.74,0l132.1-20.9c1.15-.18,1.99-1.17,1.99-2.33v-14.92c0-1.16-.84-2.15-1.99-2.33l-105.82-16.97c-.25-.04-.5-.04-.75,0Z"/>
  <path class="cls-1" d="m149.58,12.14L18.09,33.38c-1.15.19-1.99,1.18-1.99,2.35l.1,14.97c0,1.16.85,2.14,1.99,2.32l105.11,16.59c.24.04.49.04.74,0l132.1-20.9c1.15-.18,1.99-1.17,1.99-2.33v-14.92c0-1.16-.84-2.15-1.99-2.33l-105.82-16.97c-.25-.04-.5-.04-.75,0Z"/>
</svg>